<svg xmlns="http://www.w3.org/2000/svg" viewBox="0 0 23.13 23.13"><defs><style>.cls-1{fill:#242d63;fill-rule:evenodd;}</style></defs><title>instagram</title><g id="Layer_2" data-name="Layer 2"><g id="Layer_1-2" data-name="Layer 1"><path class="cls-1" d="M11.28,0C8.4,0,8,0,6.8.07A8.52,8.52,0,0,0,4,.61,5.61,5.61,0,0,0,1.94,1.94,5.61,5.61,0,0,0,.61,4,8.52,8.52,0,0,0,.07,6.8C0,8,0,8.42,0,11.57s0,3.53.07,4.76a8.52,8.52,0,0,0,.54,2.81,5.61,5.61,0,0,0,1.33,2.05A5.61,5.61,0,0,0,4,22.52a8.52,8.52,0,0,0,2.81.54c1.23.06,1.62.07,4.77.07s3.53,0,4.76-.07a8.47,8.47,0,0,0,2.81-.54,5.86,5.86,0,0,0,3.38-3.38,8.52,8.52,0,0,0,.54-2.81c.06-1.19.07-1.6.07-4.48v-.57c0-2.88,0-3.29-.07-4.48A8.52,8.52,0,0,0,22.52,4a5.61,5.61,0,0,0-1.33-2.05A5.61,5.61,0,0,0,19.14.61,8.47,8.47,0,0,0,16.33.07C15.14,0,14.73,0,11.85,0Zm7.85,5.39A1.39,1.39,0,1,1,17.74,4a1.39,1.39,0,0,1,1.39,1.39Zm-7.56,10a3.86,3.86,0,1,1,3.85-3.85,3.86,3.86,0,0,1-3.85,3.85Zm0-9.79a5.94,5.94,0,1,1-5.94,5.94,5.93,5.93,0,0,1,5.94-5.94Zm0-3.55c3.08,0,3.45,0,4.67.07a6.33,6.33,0,0,1,2.15.4,3.77,3.77,0,0,1,2.19,2.19A6.33,6.33,0,0,1,21,6.89c.05,1.22.07,1.59.07,4.68S21,15,21,16.24a6.33,6.33,0,0,1-.4,2.15,3.77,3.77,0,0,1-2.19,2.19,6.33,6.33,0,0,1-2.15.4c-1.22.05-1.59.07-4.67.07S8.11,21,6.89,21a6.33,6.33,0,0,1-2.15-.4,3.77,3.77,0,0,1-2.19-2.19,6.33,6.33,0,0,1-.4-2.15c0-1.22-.07-1.59-.07-4.67s0-3.46.07-4.68a6.33,6.33,0,0,1,.4-2.15A3.77,3.77,0,0,1,4.74,2.55a6.33,6.33,0,0,1,2.15-.4C8.11,2.1,8.48,2.08,11.57,2.08Z"/></g></g></svg>