<svg xmlns="http://www.w3.org/2000/svg" viewBox="0 0 109.47 137.66"><defs><style>.cls-1{fill:#242d63;}</style></defs><title>kit-de-suplementos</title><g id="Layer_2" data-name="Layer 2"><g id="Layer_1-2" data-name="Layer 1"><path class="cls-1" d="M46.59,13.3H69a1.75,1.75,0,0,0,1.75-1.75V4.84A1.75,1.75,0,0,0,69,3.09H46.2a1.75,1.75,0,0,0-1.75,1.75v6.71A1.75,1.75,0,0,0,46.2,13.3Z"/><path class="cls-1" d="M75,22h0a12.23,12.23,0,0,1-3.65-2.33c-.46-.5-.65-2.12-.6-3.65a4.84,4.84,0,0,0,3.09-4.51V4.84A4.84,4.84,0,0,0,69,0H46.2a4.85,4.85,0,0,0-4.85,4.84v6.71A4.85,4.85,0,0,0,45,16.22,7.8,7.8,0,0,1,44,19.71,12.38,12.38,0,0,1,40.36,22h0a9.57,9.57,0,0,0-7.11,9.2V76.33a4.4,4.4,0,0,0,4.4,4.4h40.1a4.41,4.41,0,0,0,4.41-4.4V31.24A9.56,9.56,0,0,0,75,22ZM44.45,11.55V4.84A1.75,1.75,0,0,1,46.2,3.09H69a1.75,1.75,0,0,1,1.75,1.75v6.71A1.75,1.75,0,0,1,69,13.3H46.2A1.75,1.75,0,0,1,44.45,11.55ZM79.06,76.33a1.32,1.32,0,0,1-1.32,1.31H37.64a1.31,1.31,0,0,1-1.31-1.31V31.24a6.45,6.45,0,0,1,5-6.26,1.5,1.5,0,0,0,.56-.25,14.36,14.36,0,0,0,4.38-2.95c1.19-1.32,1.61-3.75,1.76-5.38h19.6c0,1.66.2,4,1.4,5.38a14.29,14.29,0,0,0,4.37,2.94A1.56,1.56,0,0,0,74,25a6.46,6.46,0,0,1,5,6.26V76.33Z"/><rect class="cls-1" x="36.16" y="41.71" width="43.06" height="18.84"/><path class="cls-1" d="M42.47,112.17H39.09l-5.58-5.92v5.92H30.7V99.36h2.81V105l5.38-5.63h3.35l-6,6.12Z"/><path class="cls-1" d="M42.76,98.76h2.9v2.56h-2.9Zm.09,13.41v-9.12h2.72v9.12Z"/><path class="cls-1" d="M51.2,105.08v3.55a1.37,1.37,0,0,0,.4,1.1,1.44,1.44,0,0,0,1,.35,3.85,3.85,0,0,0,.9-.12v2.1a4.24,4.24,0,0,1-1.56.26,3.37,3.37,0,0,1-2.59-1,3.79,3.79,0,0,1-.89-2.68v-3.6H46.75v-2h1.73V100.9L51.2,100v3h2.32v2Z"/><path class="cls-1" d="M69.11,98.92v13.25H66.43v-1.35a2.89,2.89,0,0,1-1.17,1.1,3.72,3.72,0,0,1-1.71.4,3.66,3.66,0,0,1-2.09-.61A4,4,0,0,1,60,110a5.8,5.8,0,0,1-.51-2.49,5.72,5.72,0,0,1,.51-2.48,3.9,3.9,0,0,1,1.42-1.65,3.82,3.82,0,0,1,2.1-.59,3.57,3.57,0,0,1,1.67.39,2.76,2.76,0,0,1,1.17,1.07V98.92Zm-3.22,10.63a3.17,3.17,0,0,0,.54-2,3.1,3.1,0,0,0-.55-2,1.86,1.86,0,0,0-1.54-.69,1.94,1.94,0,0,0-1.57.68,3,3,0,0,0-.55,2,3.22,3.22,0,0,0,.55,2,1.91,1.91,0,0,0,1.57.71A1.84,1.84,0,0,0,65.89,109.55Z"/><path class="cls-1" d="M79.5,107.83h-6a2.75,2.75,0,0,0,.67,1.87,2.41,2.41,0,0,0,1.76.58,4.62,4.62,0,0,0,1.41-.23,4.46,4.46,0,0,0,1.29-.69l.72,1.84a4.78,4.78,0,0,1-1.61.82,6.42,6.42,0,0,1-1.93.3,5,5,0,0,1-3.62-1.27,4.58,4.58,0,0,1-1.31-3.47,5.23,5.23,0,0,1,.56-2.47,4.08,4.08,0,0,1,1.6-1.69,4.39,4.39,0,0,1,2.32-.61,3.88,3.88,0,0,1,3,1.25,4.92,4.92,0,0,1,1.12,3.38Zm-5.34-2.66a2.21,2.21,0,0,0-.62,1.31h3.62c-.15-1.17-.73-1.76-1.75-1.76A1.74,1.74,0,0,0,74.16,105.17Z"/><path class="cls-1" d="M0,132.8l.72-1.89a5.34,5.34,0,0,0,1.6.8,5.83,5.83,0,0,0,1.8.28,2.12,2.12,0,0,0,1.08-.22.68.68,0,0,0,.38-.63.65.65,0,0,0-.27-.54,2.78,2.78,0,0,0-.95-.34l-1.5-.34A3.79,3.79,0,0,1,.93,129a2.26,2.26,0,0,1-.62-1.67,2.44,2.44,0,0,1,.49-1.51,3.2,3.2,0,0,1,1.38-1,5.33,5.33,0,0,1,2-.37,6.2,6.2,0,0,1,1.91.3,5.82,5.82,0,0,1,1.67.84L7,127.36a5.87,5.87,0,0,0-1.43-.73,4.32,4.32,0,0,0-1.42-.26,1.93,1.93,0,0,0-1,.24.72.72,0,0,0-.38.65.61.61,0,0,0,.23.49,1.92,1.92,0,0,0,.8.32l1.53.34a4.05,4.05,0,0,1,2,1A2.37,2.37,0,0,1,8,131.11a2.41,2.41,0,0,1-1,2,4.83,4.83,0,0,1-2.86.76A6.73,6.73,0,0,1,0,132.8Z"/><path class="cls-1" d="M18.36,124.65v9.12H15.71v-1.33a2.84,2.84,0,0,1-1.13,1.1,3.32,3.32,0,0,1-1.58.38,3.23,3.23,0,0,1-2.56-1,4.23,4.23,0,0,1-.85-2.88v-5.43h2.72v5.49c0,1.1.48,1.65,1.42,1.65a1.77,1.77,0,0,0,1.37-.57,2.18,2.18,0,0,0,.52-1.52v-5Z"/><path class="cls-1" d="M28.22,125a3.88,3.88,0,0,1,1.43,1.7,6.25,6.25,0,0,1,0,5,3.72,3.72,0,0,1-1.42,1.65,3.9,3.9,0,0,1-2.1.58,3.66,3.66,0,0,1-1.71-.4,2.74,2.74,0,0,1-1.16-1.1v5.24H20.56v-10.4a20.2,20.2,0,0,0-.15-2.61H23l.18,1.51a2.71,2.71,0,0,1,1.16-1.28,3.56,3.56,0,0,1,1.83-.47A3.63,3.63,0,0,1,28.22,125Zm-1.31,6.15a3.06,3.06,0,0,0,.54-1.95,3.21,3.21,0,0,0-.55-2,1.83,1.83,0,0,0-1.54-.72,1.89,1.89,0,0,0-1.56.69,3.21,3.21,0,0,0-.54,2,3.12,3.12,0,0,0,.54,2,2.11,2.11,0,0,0,3.11,0Z"/><path class="cls-1" d="M31.91,133.77V120.52h2.72v13.25Z"/><path class="cls-1" d="M45,129.43H39a2.75,2.75,0,0,0,.67,1.87,2.41,2.41,0,0,0,1.76.58,4.62,4.62,0,0,0,1.41-.23,4.46,4.46,0,0,0,1.29-.69l.72,1.84a4.78,4.78,0,0,1-1.61.82,6.42,6.42,0,0,1-1.93.3,5,5,0,0,1-3.62-1.27,4.58,4.58,0,0,1-1.31-3.47,5.23,5.23,0,0,1,.56-2.47,4.08,4.08,0,0,1,1.6-1.69,4.39,4.39,0,0,1,2.32-.61,3.88,3.88,0,0,1,3,1.25A4.92,4.92,0,0,1,45,129Zm-5.34-2.66a2.21,2.21,0,0,0-.62,1.31H42.7c-.15-1.17-.73-1.76-1.75-1.76A1.74,1.74,0,0,0,39.7,126.77Z"/><path class="cls-1" d="M60.24,125.36a4.54,4.54,0,0,1,.76,2.89v5.52H58.28v-5.43A2.43,2.43,0,0,0,58,127a1.17,1.17,0,0,0-1-.42,1.54,1.54,0,0,0-1.28.57,2.6,2.6,0,0,0-.45,1.62v5H52.52v-5.43a2.35,2.35,0,0,0-.31-1.37,1.14,1.14,0,0,0-1-.43,1.57,1.57,0,0,0-1.29.57,2.6,2.6,0,0,0-.46,1.62v5H46.75v-6.51a20.2,20.2,0,0,0-.15-2.61h2.56l.16,1.36a2.81,2.81,0,0,1,1.16-1.18,3.45,3.45,0,0,1,1.72-.42,2.62,2.62,0,0,1,2.7,1.69,3.43,3.43,0,0,1,1.25-1.23,3.53,3.53,0,0,1,1.76-.46A2.83,2.83,0,0,1,60.24,125.36Z"/><path class="cls-1" d="M71.33,129.43h-6A2.75,2.75,0,0,0,66,131.3a2.4,2.4,0,0,0,1.76.58,4.41,4.41,0,0,0,2.7-.92l.72,1.84a4.78,4.78,0,0,1-1.61.82,6.49,6.49,0,0,1-1.94.3A5,5,0,0,1,64,132.65a4.59,4.59,0,0,1-1.32-3.47,5.23,5.23,0,0,1,.57-2.47A4.12,4.12,0,0,1,64.85,125a4.45,4.45,0,0,1,2.33-.61,3.89,3.89,0,0,1,3,1.25A4.92,4.92,0,0,1,71.33,129ZM66,126.77a2.21,2.21,0,0,0-.62,1.31H69c-.14-1.17-.72-1.76-1.74-1.76A1.73,1.73,0,0,0,66,126.77Z"/><path class="cls-1" d="M81.92,128.25v5.52H79.2v-5.4a2.25,2.25,0,0,0-.35-1.39,1.33,1.33,0,0,0-1.11-.44,1.89,1.89,0,0,0-1.44.57,2.18,2.18,0,0,0-.54,1.55v5.11H73v-6.51a22.34,22.34,0,0,0-.14-2.61h2.55l.18,1.44a3.46,3.46,0,0,1,1.27-1.25,3.75,3.75,0,0,1,1.78-.43Q81.92,124.41,81.92,128.25Z"/><path class="cls-1" d="M87.5,126.68v3.55a1.4,1.4,0,0,0,.39,1.1,1.48,1.48,0,0,0,1,.35,4,4,0,0,0,.9-.12v2.1a4.3,4.3,0,0,1-1.57.26,3.34,3.34,0,0,1-2.58-1,3.79,3.79,0,0,1-.89-2.68v-3.6H83.05v-2h1.73V122.5l2.72-.88v3h2.32v2Z"/><path class="cls-1" d="M93,133.34a4,4,0,0,1-1.67-1.66,5.68,5.68,0,0,1,0-5A4,4,0,0,1,93,125a5.33,5.33,0,0,1,2.55-.58,5.21,5.21,0,0,1,2.52.58,4,4,0,0,1,1.67,1.65,5.76,5.76,0,0,1,0,5,4,4,0,0,1-1.67,1.66,5.33,5.33,0,0,1-2.52.58A5.45,5.45,0,0,1,93,133.34Zm4.09-2.16a4.08,4.08,0,0,0,0-4,1.84,1.84,0,0,0-1.54-.68,1.9,1.9,0,0,0-1.57.68,3.16,3.16,0,0,0-.54,2c0,1.79.71,2.69,2.11,2.69A1.87,1.87,0,0,0,97.1,131.18Z"/><path class="cls-1" d="M101.48,132.8l.72-1.89a5.46,5.46,0,0,0,1.6.8,5.83,5.83,0,0,0,1.8.28,2.12,2.12,0,0,0,1.08-.22.67.67,0,0,0,.38-.63.65.65,0,0,0-.27-.54,2.78,2.78,0,0,0-1-.34l-1.5-.34a3.79,3.79,0,0,1-1.93-.92,2.3,2.3,0,0,1-.62-1.67,2.44,2.44,0,0,1,.49-1.51,3.2,3.2,0,0,1,1.38-1,5.36,5.36,0,0,1,2-.37,6.2,6.2,0,0,1,1.91.3,5.88,5.88,0,0,1,1.68.84l-.76,1.81a5.69,5.69,0,0,0-1.43-.73,4.31,4.31,0,0,0-1.41-.26,1.94,1.94,0,0,0-1.05.24.72.72,0,0,0-.38.65.61.61,0,0,0,.23.49,2,2,0,0,0,.8.32l1.53.34a4,4,0,0,1,2,1,2.6,2.6,0,0,1-.41,3.78,4.83,4.83,0,0,1-2.86.76A6.73,6.73,0,0,1,101.48,132.8Z"/></g></g></svg>