<svg xmlns="http://www.w3.org/2000/svg" viewBox="0 0 86.16 128.59"><defs><style>.cls-1{fill:#242d63;}</style></defs><title>monitoreo-de-peso</title><g id="Layer_2" data-name="Layer 2"><g id="Layer_1-2" data-name="Layer 1"><path class="cls-1" d="M10.48,90.29h2.21V103.1H10.21v-7l-3,7H5.44l-3-6.91v6.91H0V90.29H2.23l4.14,9.45Z"/><path class="cls-1" d="M16.91,102.67A3.91,3.91,0,0,1,15.24,101a5.68,5.68,0,0,1,0-5,3.93,3.93,0,0,1,1.67-1.66,5.45,5.45,0,0,1,2.55-.58,5.33,5.33,0,0,1,2.52.58A4,4,0,0,1,23.64,96a5.68,5.68,0,0,1,0,5A3.94,3.94,0,0,1,22,102.67a5.21,5.21,0,0,1-2.52.58A5.33,5.33,0,0,1,16.91,102.67ZM21,100.51a3.2,3.2,0,0,0,.53-2,3.24,3.24,0,0,0-.53-2,1.86,1.86,0,0,0-1.54-.68,1.89,1.89,0,0,0-1.57.68,3.17,3.17,0,0,0-.54,2c0,1.79.7,2.68,2.11,2.68A1.85,1.85,0,0,0,21,100.51Z"/><path class="cls-1" d="M34.85,97.58v5.52H32.13V97.7a2.25,2.25,0,0,0-.35-1.39,1.35,1.35,0,0,0-1.11-.44,1.89,1.89,0,0,0-1.44.57A2.2,2.2,0,0,0,28.69,98v5.11H26V96.59A20.55,20.55,0,0,0,25.83,94h2.56l.18,1.44a3.26,3.26,0,0,1,1.26-1.24,3.64,3.64,0,0,1,1.78-.44Q34.85,93.74,34.85,97.58Z"/><path class="cls-1" d="M36.92,89.69h2.9v2.56h-2.9ZM37,103.1V94h2.72v9.12Z"/><path class="cls-1" d="M45.36,96v3.55a1.41,1.41,0,0,0,.4,1.11,1.49,1.49,0,0,0,1,.35,3.9,3.9,0,0,0,.9-.13V103a4.47,4.47,0,0,1-1.56.25,3.37,3.37,0,0,1-2.59-1,3.77,3.77,0,0,1-.89-2.68V96H40.91V94h1.73V91.84L45.36,91v3h2.32v2Z"/><path class="cls-1" d="M50.88,102.67A3.93,3.93,0,0,1,49.2,101a5.76,5.76,0,0,1,0-5,4,4,0,0,1,1.68-1.66,5.38,5.38,0,0,1,2.54-.58,5.33,5.33,0,0,1,2.52.58A4,4,0,0,1,57.61,96a5.76,5.76,0,0,1,0,5,4,4,0,0,1-1.67,1.65,5.21,5.21,0,0,1-2.52.58A5.26,5.26,0,0,1,50.88,102.67ZM55,100.51a3.13,3.13,0,0,0,.53-2,3.17,3.17,0,0,0-.53-2,1.83,1.83,0,0,0-1.54-.68,1.88,1.88,0,0,0-1.56.68,3.17,3.17,0,0,0-.54,2c0,1.79.7,2.68,2.1,2.68A1.82,1.82,0,0,0,55,100.51Z"/><path class="cls-1" d="M66.22,93.94l0,2.49a3.08,3.08,0,0,0-1.33-.31,2.2,2.2,0,0,0-1.65.59,2.26,2.26,0,0,0-.56,1.62v4.77H59.94V96.59A22.59,22.59,0,0,0,59.8,94h2.55l.18,1.56a2.75,2.75,0,0,1,1.07-1.32,3.1,3.1,0,0,1,1.65-.46A2.33,2.33,0,0,1,66.22,93.94Z"/><path class="cls-1" d="M75.33,98.77h-6a2.74,2.74,0,0,0,.66,1.86,2.44,2.44,0,0,0,1.77.58,4.32,4.32,0,0,0,1.4-.23,4.37,4.37,0,0,0,1.3-.68l.72,1.83a4.88,4.88,0,0,1-1.61.82,6.54,6.54,0,0,1-1.94.3A5,5,0,0,1,68,102a4.61,4.61,0,0,1-1.31-3.46A5.27,5.27,0,0,1,67.26,96a4.06,4.06,0,0,1,1.59-1.69,4.51,4.51,0,0,1,2.32-.61,3.85,3.85,0,0,1,3,1.26,4.83,4.83,0,0,1,1.12,3.37ZM70,96.1a2.27,2.27,0,0,0-.62,1.32H73c-.15-1.18-.73-1.77-1.75-1.77A1.76,1.76,0,0,0,70,96.1Z"/><path class="cls-1" d="M78.85,102.67A3.93,3.93,0,0,1,77.17,101a5.76,5.76,0,0,1,0-5,4,4,0,0,1,1.68-1.66,5.38,5.38,0,0,1,2.54-.58,5.33,5.33,0,0,1,2.52.58A4,4,0,0,1,85.58,96a5.76,5.76,0,0,1,0,5,4,4,0,0,1-1.67,1.65,5.21,5.21,0,0,1-2.52.58A5.26,5.26,0,0,1,78.85,102.67Zm4.08-2.16a3.13,3.13,0,0,0,.53-2,3.17,3.17,0,0,0-.53-2,1.83,1.83,0,0,0-1.54-.68,1.88,1.88,0,0,0-1.56.68,3.17,3.17,0,0,0-.54,2c0,1.79.7,2.68,2.1,2.68A1.82,1.82,0,0,0,82.93,100.51Z"/><path class="cls-1" d="M19.25,111.46V124.7H16.57v-1.35a2.89,2.89,0,0,1-1.17,1.1,3.59,3.59,0,0,1-1.71.4,3.73,3.73,0,0,1-2.09-.6,4.06,4.06,0,0,1-1.43-1.7,5.77,5.77,0,0,1-.51-2.49,5.65,5.65,0,0,1,.51-2.47,3.93,3.93,0,0,1,1.42-1.66,3.81,3.81,0,0,1,2.1-.58,3.57,3.57,0,0,1,1.67.38,2.83,2.83,0,0,1,1.17,1.07v-5.34ZM16,122.09a3.21,3.21,0,0,0,.54-2,3.06,3.06,0,0,0-.55-2,1.84,1.84,0,0,0-1.54-.7,1.92,1.92,0,0,0-1.57.69,3,3,0,0,0-.55,1.94,3.2,3.2,0,0,0,.55,2,1.91,1.91,0,0,0,1.57.71A1.86,1.86,0,0,0,16,122.09Z"/><path class="cls-1" d="M29.64,120.37h-6a2.74,2.74,0,0,0,.67,1.86,2.41,2.41,0,0,0,1.76.58,4.34,4.34,0,0,0,1.41-.23,4.2,4.2,0,0,0,1.29-.68l.72,1.83a4.69,4.69,0,0,1-1.61.82,6.42,6.42,0,0,1-1.93.3,5,5,0,0,1-3.62-1.27A4.58,4.58,0,0,1,21,120.12a5.39,5.39,0,0,1,.56-2.48,4.08,4.08,0,0,1,1.6-1.69,4.48,4.48,0,0,1,2.32-.6,3.85,3.85,0,0,1,3,1.25A4.9,4.9,0,0,1,29.64,120ZM24.3,117.7a2.21,2.21,0,0,0-.62,1.32H27.3c-.15-1.18-.73-1.77-1.75-1.77A1.74,1.74,0,0,0,24.3,117.7Z"/><path class="cls-1" d="M44.07,116a4,4,0,0,1,1.43,1.7,6.28,6.28,0,0,1,0,5,3.75,3.75,0,0,1-1.42,1.64,3.82,3.82,0,0,1-2.11.58,3.59,3.59,0,0,1-1.71-.4,2.77,2.77,0,0,1-1.15-1.1v5.24H36.4v-10.4a20.55,20.55,0,0,0-.14-2.61h2.56l.18,1.51a2.76,2.76,0,0,1,1.16-1.28,3.54,3.54,0,0,1,1.82-.46A3.73,3.73,0,0,1,44.07,116Zm-1.31,6.15a3.06,3.06,0,0,0,.54-1.95,3.21,3.21,0,0,0-.55-2,1.83,1.83,0,0,0-1.54-.72,1.87,1.87,0,0,0-1.56.7,3.86,3.86,0,0,0,0,4,1.91,1.91,0,0,0,1.56.68A1.88,1.88,0,0,0,42.76,122.1Z"/><path class="cls-1" d="M56,120.37h-6a2.74,2.74,0,0,0,.67,1.86,2.4,2.4,0,0,0,1.76.58,4.24,4.24,0,0,0,1.4-.23,4.37,4.37,0,0,0,1.3-.68l.72,1.83a4.78,4.78,0,0,1-1.61.82,6.49,6.49,0,0,1-1.94.3,5,5,0,0,1-3.61-1.27,4.58,4.58,0,0,1-1.32-3.46,5.27,5.27,0,0,1,.57-2.48A4.12,4.12,0,0,1,49.47,116a4.53,4.53,0,0,1,2.32-.6,3.87,3.87,0,0,1,3.05,1.25A4.89,4.89,0,0,1,56,120Zm-5.33-2.67A2.28,2.28,0,0,0,50,119h3.62q-.21-1.77-1.74-1.77A1.73,1.73,0,0,0,50.62,117.7Z"/><path class="cls-1" d="M57.07,123.73l.72-1.89a5.34,5.34,0,0,0,1.6.8,5.83,5.83,0,0,0,1.8.28,2.25,2.25,0,0,0,1.08-.21.7.7,0,0,0,.38-.63.63.63,0,0,0-.27-.54,2.57,2.57,0,0,0-1-.34l-1.49-.35a3.67,3.67,0,0,1-1.93-.92,2.23,2.23,0,0,1-.63-1.67,2.47,2.47,0,0,1,.5-1.51,3.28,3.28,0,0,1,1.38-1,5.29,5.29,0,0,1,2-.36,6.24,6.24,0,0,1,1.91.29,5.82,5.82,0,0,1,1.67.84l-.75,1.82a5.91,5.91,0,0,0-1.43-.74,4.3,4.3,0,0,0-1.42-.25,2,2,0,0,0-1,.23.74.74,0,0,0-.38.65.58.58,0,0,0,.23.49,1.86,1.86,0,0,0,.8.32l1.53.34a4.14,4.14,0,0,1,2,1,2.6,2.6,0,0,1-.41,3.78,4.77,4.77,0,0,1-2.87.76A6.63,6.63,0,0,1,57.07,123.73Z"/><path class="cls-1" d="M68.52,124.27a4,4,0,0,1-1.67-1.65,5.76,5.76,0,0,1,0-5,4,4,0,0,1,1.67-1.66,5.45,5.45,0,0,1,2.55-.57,5.32,5.32,0,0,1,2.52.57,4,4,0,0,1,1.67,1.66,5.76,5.76,0,0,1,0,5,4,4,0,0,1-1.67,1.65,5.21,5.21,0,0,1-2.52.58A5.33,5.33,0,0,1,68.52,124.27Zm4.09-2.16a3.2,3.2,0,0,0,.53-2,3.24,3.24,0,0,0-.53-2,1.84,1.84,0,0,0-1.54-.68,1.88,1.88,0,0,0-1.56.68,3.17,3.17,0,0,0-.54,2c0,1.79.7,2.68,2.1,2.68A1.84,1.84,0,0,0,72.61,122.11Z"/><path class="cls-1" d="M16.45,0C9.74,0,4.28,5.86,4.28,13.07V61.6c0,7.21,5.46,13.07,12.17,13.07a1.87,1.87,0,0,0,.05-3.74h-.05c-4.85,0-8.69-4.13-8.69-9.33V13.07c0-5.21,3.84-9.34,8.69-9.34H68.63c4.85,0,8.7,4.13,8.7,9.34V61.6c0,2.19-1.64,4.54-4.21,6.36a16,16,0,0,1-8.35,3H23.41a1.88,1.88,0,0,0-.05,3.74H64.77a18.61,18.61,0,0,0,10.28-3.59c3.13-2.23,5.76-5.46,5.76-9.48V13.07C80.81,5.86,75.35,0,68.63,0ZM42.54,8.4c-11.18,0-18.27,3.73-21.39,8.2a2,2,0,0,0-.27,1.69l4.35,14.93a1.76,1.76,0,0,0,1.66,1.31H58.2a1.76,1.76,0,0,0,1.66-1.31L64.2,18.29a2,2,0,0,0-.27-1.69C60.81,12.13,53.72,8.4,42.54,8.4Zm-1.79,3.79h0V16.8a1.81,1.81,0,0,0,1.72,1.89,1.79,1.79,0,0,0,1.76-1.84V12.19a31.92,31.92,0,0,1,9,1.58l-1.88,4.05A1.94,1.94,0,0,0,52,20.39a1.66,1.66,0,0,0,2.39-.6,1.48,1.48,0,0,0,.15-.31l2-4.31a13.71,13.71,0,0,1,4,3.09L56.92,30.8H44.07l-4.3-10.12A1.73,1.73,0,0,0,38,19.57a1.85,1.85,0,0,0-1.49,2.11,2,2,0,0,0,.16.54l3.64,8.58H28.17L24.52,18.26a13.77,13.77,0,0,1,4-3.09l2,4.31a1.71,1.71,0,0,0,2.25,1.07,1.92,1.92,0,0,0,1-2.42,2.92,2.92,0,0,0-.14-.31l-1.88-4.05A31.6,31.6,0,0,1,40.75,12.19Z"/></g></g></svg>