<svg xmlns="http://www.w3.org/2000/svg" viewBox="0 0 121.93 141.15"><defs><style>.cls-1{fill:#242d63;}</style></defs><title>plan-personalizado</title><g id="Layer_2" data-name="Layer 2"><g id="Layer_1-2" data-name="Layer 1"><path class="cls-1" d="M42.36,102.84h5.82a4.85,4.85,0,0,1,3.3,1,3.87,3.87,0,0,1,0,5.57,4.84,4.84,0,0,1-3.29,1h-3v5.19H42.36Zm5.46,5.49q2.19,0,2.19-1.65T47.82,105H45.17v3.33Z"/><path class="cls-1" d="M54.33,115.66V102.41h2.72v13.25Z"/><path class="cls-1" d="M68.41,106.53v9.13H65.73v-1.35a3,3,0,0,1-1.17,1.1,3.71,3.71,0,0,1-1.71.39,3.84,3.84,0,0,1-2.1-.57,3.9,3.9,0,0,1-1.42-1.65,5.58,5.58,0,0,1-.52-2.48,5.73,5.73,0,0,1,.52-2.5,4,4,0,0,1,1.43-1.7,3.73,3.73,0,0,1,2.09-.6,3.6,3.6,0,0,1,1.71.41,3.08,3.08,0,0,1,1.17,1.12v-1.3Zm-3.22,6.52a3.92,3.92,0,0,0,0-4,1.86,1.86,0,0,0-1.55-.69,1.88,1.88,0,0,0-1.57.72,3.18,3.18,0,0,0-.56,2,3.07,3.07,0,0,0,.55,2,1.92,1.92,0,0,0,1.58.67A1.88,1.88,0,0,0,65.19,113.05Z"/><path class="cls-1" d="M79.48,110.13v5.53H76.76v-5.4a2.29,2.29,0,0,0-.35-1.4,1.35,1.35,0,0,0-1.11-.44,1.86,1.86,0,0,0-1.44.58,2.17,2.17,0,0,0-.54,1.55v5.11H70.6v-6.52a20.55,20.55,0,0,0-.14-2.61H73L73.2,108a3.33,3.33,0,0,1,1.26-1.24,3.63,3.63,0,0,1,1.78-.43Q79.48,106.3,79.48,110.13Z"/><path class="cls-1" d="M7.81,128.5a4,4,0,0,1,1.43,1.7,5.88,5.88,0,0,1,.52,2.5,5.72,5.72,0,0,1-.51,2.48,3.83,3.83,0,0,1-1.42,1.65,3.9,3.9,0,0,1-2.11.57A3.71,3.71,0,0,1,4,137a2.84,2.84,0,0,1-1.15-1.1v5.24H.14V130.74A20.55,20.55,0,0,0,0,128.13H2.56l.18,1.51a2.69,2.69,0,0,1,1.16-1.27,3.45,3.45,0,0,1,1.82-.47A3.73,3.73,0,0,1,7.81,128.5ZM6.5,134.66a3.07,3.07,0,0,0,.54-2,3.25,3.25,0,0,0-.55-2A1.83,1.83,0,0,0,5,130a1.89,1.89,0,0,0-1.56.69,3.86,3.86,0,0,0,0,4,1.91,1.91,0,0,0,1.56.68A1.87,1.87,0,0,0,6.5,134.66Z"/><path class="cls-1" d="M19.69,132.92h-6a2.74,2.74,0,0,0,.67,1.86,2.4,2.4,0,0,0,1.76.59,4.25,4.25,0,0,0,1.4-.24,4.37,4.37,0,0,0,1.3-.68l.72,1.84a4.77,4.77,0,0,1-1.61.81,6.49,6.49,0,0,1-1.94.3,5,5,0,0,1-3.61-1.27,4.57,4.57,0,0,1-1.32-3.46,5.27,5.27,0,0,1,.57-2.48,4.18,4.18,0,0,1,1.59-1.69,4.53,4.53,0,0,1,2.32-.6,3.87,3.87,0,0,1,3,1.25,4.89,4.89,0,0,1,1.11,3.37Zm-5.34-2.66a2.3,2.3,0,0,0-.62,1.31h3.62c-.14-1.18-.72-1.76-1.74-1.76A1.77,1.77,0,0,0,14.35,130.26Z"/><path class="cls-1" d="M27.68,128.1v2.48a3.27,3.27,0,0,0-1.34-.31,2.16,2.16,0,0,0-1.64.59,2.23,2.23,0,0,0-.57,1.63v4.77H21.4v-6.52a22.59,22.59,0,0,0-.14-2.61h2.55L24,129.7a2.73,2.73,0,0,1,1.07-1.33,3.1,3.1,0,0,1,1.65-.45A2.3,2.3,0,0,1,27.68,128.1Z"/><path class="cls-1" d="M28.1,136.29l.72-1.89a5.85,5.85,0,0,0,1.6.8,6.15,6.15,0,0,0,1.8.28,2.23,2.23,0,0,0,1.08-.22.68.68,0,0,0,.38-.63.63.63,0,0,0-.27-.54,2.57,2.57,0,0,0-1-.34L31,133.41a3.91,3.91,0,0,1-1.94-.92,2.3,2.3,0,0,1-.62-1.68,2.49,2.49,0,0,1,.5-1.51,3.18,3.18,0,0,1,1.38-1,5.11,5.11,0,0,1,2-.37,6.55,6.55,0,0,1,1.91.29,5.82,5.82,0,0,1,1.67.84l-.75,1.82a6.15,6.15,0,0,0-1.44-.74,4.2,4.2,0,0,0-1.41-.25,2,2,0,0,0-1,.23.75.75,0,0,0-.38.65.62.62,0,0,0,.22.5,2,2,0,0,0,.81.31l1.53.34a4.06,4.06,0,0,1,2,1,2.35,2.35,0,0,1,.63,1.72,2.43,2.43,0,0,1-1,2.06,4.84,4.84,0,0,1-2.87.75A6.7,6.7,0,0,1,28.1,136.29Z"/><path class="cls-1" d="M39.55,136.83a4,4,0,0,1-1.67-1.66,5.76,5.76,0,0,1,0-5,4,4,0,0,1,1.67-1.66,5.45,5.45,0,0,1,2.55-.57,5.32,5.32,0,0,1,2.52.57,4,4,0,0,1,1.67,1.66,5.76,5.76,0,0,1,0,5,4,4,0,0,1-1.67,1.66,5.32,5.32,0,0,1-2.52.57A5.45,5.45,0,0,1,39.55,136.83Zm4.09-2.16a4.1,4.1,0,0,0,0-4A1.84,1.84,0,0,0,42.1,130a1.88,1.88,0,0,0-1.56.67,3.17,3.17,0,0,0-.54,2c0,1.79.7,2.68,2.1,2.68A1.86,1.86,0,0,0,43.64,134.67Z"/><path class="cls-1" d="M57.49,131.73v5.53H54.77v-5.4a2.22,2.22,0,0,0-.35-1.4,1.33,1.33,0,0,0-1.1-.44,1.86,1.86,0,0,0-1.44.58,2.17,2.17,0,0,0-.54,1.55v5.11H48.62v-6.52a20.42,20.42,0,0,0-.15-2.61H51l.18,1.44a3.36,3.36,0,0,1,1.27-1.24,3.57,3.57,0,0,1,1.77-.43Q57.49,127.9,57.49,131.73Z"/><path class="cls-1" d="M68.8,128.13v9.13H66.11v-1.35a2.83,2.83,0,0,1-1.17,1.1,3.65,3.65,0,0,1-1.71.39,3.83,3.83,0,0,1-2.09-.57,4,4,0,0,1-1.43-1.65,5.72,5.72,0,0,1-.51-2.48,5.88,5.88,0,0,1,.51-2.5,4,4,0,0,1,1.44-1.7,3.7,3.7,0,0,1,2.08-.6,3.54,3.54,0,0,1,1.71.41,2.94,2.94,0,0,1,1.17,1.12v-1.3Zm-3.23,6.52a3.92,3.92,0,0,0,0-4A1.84,1.84,0,0,0,64,130a1.86,1.86,0,0,0-1.57.72,3.18,3.18,0,0,0-.56,2,3,3,0,0,0,.55,2,1.92,1.92,0,0,0,1.58.67A1.86,1.86,0,0,0,65.57,134.65Z"/><path class="cls-1" d="M71,137.26V124h2.72v13.25Z"/><path class="cls-1" d="M75.83,123.85h2.9v2.55h-2.9Zm.09,13.41v-9.13h2.72v9.13Z"/><path class="cls-1" d="M83.81,135.22h4.86v2h-8v-1.91l4.61-5.18H80.69v-2h7.8V130Z"/><path class="cls-1" d="M99.27,128.13v9.13H96.59v-1.35a3,3,0,0,1-1.17,1.1,3.71,3.71,0,0,1-1.71.39,3.71,3.71,0,0,1-3.52-2.22,5.72,5.72,0,0,1-.52-2.48,5.88,5.88,0,0,1,.52-2.5,4,4,0,0,1,1.43-1.7,3.73,3.73,0,0,1,2.09-.6,3.6,3.6,0,0,1,1.71.41,3.08,3.08,0,0,1,1.17,1.12v-1.3Zm-3.22,6.52a3.92,3.92,0,0,0,0-4A1.86,1.86,0,0,0,94.5,130a1.88,1.88,0,0,0-1.57.72,3.18,3.18,0,0,0-.56,2,3.07,3.07,0,0,0,.55,2,1.92,1.92,0,0,0,1.58.67A1.88,1.88,0,0,0,96.05,134.65Z"/><path class="cls-1" d="M110.61,124v13.25h-2.68v-1.35a3,3,0,0,1-1.17,1.1,3.94,3.94,0,0,1-3.8-.21,4,4,0,0,1-1.43-1.69,5.85,5.85,0,0,1-.52-2.5,5.68,5.68,0,0,1,.52-2.47,3.87,3.87,0,0,1,1.42-1.66,3.79,3.79,0,0,1,2.1-.58,3.69,3.69,0,0,1,1.67.38,2.91,2.91,0,0,1,1.17,1.08V124Zm-3.22,10.63a3.19,3.19,0,0,0,.54-2,3.14,3.14,0,0,0-.55-2,1.86,1.86,0,0,0-1.54-.69,1.9,1.9,0,0,0-1.57.68,3,3,0,0,0-.56,1.94,3.18,3.18,0,0,0,.56,2,1.89,1.89,0,0,0,1.57.71A1.86,1.86,0,0,0,107.39,134.64Z"/><path class="cls-1" d="M114.61,136.83a4,4,0,0,1-1.67-1.66,5.68,5.68,0,0,1,0-5,4,4,0,0,1,1.67-1.66,5.45,5.45,0,0,1,2.55-.57,5.32,5.32,0,0,1,2.52.57,4,4,0,0,1,1.67,1.66,5.76,5.76,0,0,1,0,5,4,4,0,0,1-1.67,1.66,5.32,5.32,0,0,1-2.52.57A5.45,5.45,0,0,1,114.61,136.83Zm4.09-2.16a4.1,4.1,0,0,0,0-4,1.84,1.84,0,0,0-1.54-.67,1.9,1.9,0,0,0-1.57.67,3.17,3.17,0,0,0-.54,2c0,1.79.71,2.68,2.11,2.68A1.86,1.86,0,0,0,118.7,134.67Z"/><path class="cls-1" d="M31.74,57.47a4.89,4.89,0,0,1-4.35,0A1.4,1.4,0,1,0,26.14,60,7.68,7.68,0,0,0,33,60a1.4,1.4,0,1,0-1.25-2.51Z"/><path class="cls-1" d="M91.43,7.07,66.23,7V4.21A4.21,4.21,0,0,0,62,0H60.88a4.21,4.21,0,0,0-4.21,4.2V7L35.42,6.93A1.4,1.4,0,0,0,34,8.33v4.2h-2.8a1.4,1.4,0,0,0-1.4,1.4l-.1,37.74a5,5,0,0,1-1.22.23,11.93,11.93,0,0,1-.87-8.58l1.09-4a1.4,1.4,0,0,0-2.7-.74l-.76,2.78-.58-1.47A11.25,11.25,0,0,0,16,33l-5.62-.88a1.4,1.4,0,0,0-1.45,2L12,39.82a11.24,11.24,0,0,0,6.89,5.51l5.54,1.54A14.41,14.41,0,0,0,25,50.72l-.2-.17-.4-.4A9,9,0,0,0,18,47.49a9.1,9.1,0,0,0-9,7.74,34.6,34.6,0,0,0,5.87,24.84l.61.88a6.89,6.89,0,0,0,9.59,1.71,6.54,6.54,0,0,0,1.56-1.5l.32-.42a1.42,1.42,0,0,1,2.24,0l.31.42a6.93,6.93,0,0,0,5.51,2.76l56.18.15a1.41,1.41,0,0,0,1.41-1.4l.19-74.21A1.4,1.4,0,0,0,91.43,7.07Zm-32-2.87a1.4,1.4,0,0,1,1.4-1.4H62a1.41,1.41,0,0,1,1.41,1.41V7h-4ZM58.05,9.79l12.37,0V14A1.4,1.4,0,0,1,69,15.42l-14,0A1.4,1.4,0,0,1,53.61,14V9.78ZM36.82,9.73l14,0v2.8l-14,0ZM19.6,42.64a8.48,8.48,0,0,1-5.17-4.13l-1.72-3.23,2.84.45a8.43,8.43,0,0,1,6.51,5.2l1.06,2.68ZM31.79,79.49l-.32-.42a4.2,4.2,0,0,0-5.88-.85,4.45,4.45,0,0,0-.84.84l-.31.41a4.08,4.08,0,0,1-5.72.81,4.18,4.18,0,0,1-.9-.93l-.61-.87a31.82,31.82,0,0,1-5.39-22.84,6.25,6.25,0,0,1,10.61-3.51l.4.4A7.48,7.48,0,0,0,31.51,54a1.49,1.49,0,0,0,.48-.26,7.54,7.54,0,0,0,1.54-1.15l.41-.4a6.2,6.2,0,0,1,4.42-1.82,6.29,6.29,0,0,1,6.17,5.38A31.88,31.88,0,0,1,39,78.53l-.62.87a4.08,4.08,0,0,1-5.69,1,3.93,3.93,0,0,1-.92-.9ZM48.67,65a2.12,2.12,0,0,1,0,3,2.21,2.21,0,0,1-2,.51,35.26,35.26,0,0,0,.73-4.06,2.2,2.2,0,0,1,1.31.57ZM46.62,53.05a8.89,8.89,0,0,0-1.47-2.36,2.13,2.13,0,0,1,.58-1.12,2.19,2.19,0,0,1,3,0,2.11,2.11,0,0,1,0,3,2.2,2.2,0,0,1-2.08.5Zm-6,28.1.1-.14.62-.87h0a34.77,34.77,0,0,0,4.53-9A4.9,4.9,0,0,0,50.65,63a5.08,5.08,0,0,0-3-1.4A35.57,35.57,0,0,0,47.36,56a4.91,4.91,0,0,0,3.33-8.35,5.08,5.08,0,0,0-6.93,0,4.51,4.51,0,0,0-.86,1.21,9,9,0,0,0-10.38.87l.08-34.35,18.46,0A4.21,4.21,0,0,0,55,18.18l14,0a4.21,4.21,0,0,0,4-2.8l11.46,0-.17,65.81Zm49.25.12H87l.17-67.21a1.4,1.4,0,0,0-1.4-1.4l-12.6,0V9.83l16.8,0Z"/><path class="cls-1" d="M47.26,30.76a4.9,4.9,0,1,0,4.89,4.91A4.9,4.9,0,0,0,47.26,30.76Zm0,7a2.1,2.1,0,1,1,2.1-2.09,2.1,2.1,0,0,1-2.1,2.09Z"/><rect class="cls-1" x="61.28" y="16.8" width="2.8" height="15.4" transform="translate(38.02 87.12) rotate(-89.85)"/><rect class="cls-1" x="64.06" y="24.51" width="2.8" height="21" transform="translate(30.28 100.37) rotate(-89.85)"/><rect class="cls-1" x="78.76" y="33.64" width="2.8" height="2.8" transform="translate(44.91 115.11) rotate(-89.85)"/><rect class="cls-1" x="64.02" y="39.91" width="2.8" height="21" transform="translate(14.84 115.7) rotate(-89.85)"/><rect class="cls-1" x="78.72" y="49.05" width="2.8" height="2.8" transform="translate(29.47 130.43) rotate(-89.85)"/><rect class="cls-1" x="63.98" y="55.31" width="2.8" height="21" transform="translate(-0.6 131.02) rotate(-89.85)"/><rect class="cls-1" x="78.68" y="64.45" width="2.8" height="2.8" transform="translate(14.03 145.76) rotate(-89.85)"/><rect class="cls-1" x="56.25" y="75.59" width="2.8" height="2.8" transform="translate(-19.49 134.44) rotate(-89.85)"/><rect class="cls-1" x="61.85" y="75.61" width="2.8" height="2.8" transform="translate(-13.92 140.06) rotate(-89.85)"/><rect class="cls-1" x="67.45" y="75.62" width="2.8" height="2.8" transform="translate(-8.35 145.67) rotate(-89.85)"/><path class="cls-1" d="M80.2,18.24H76V21h2.8v2.8h2.81v-4.2A1.41,1.41,0,0,0,80.2,18.24Z"/><rect class="cls-1" x="45.19" y="18.16" width="2.8" height="2.8" transform="translate(26.92 66.1) rotate(-89.85)"/><rect class="cls-1" x="39.59" y="18.14" width="2.8" height="2.8" transform="translate(21.34 60.49) rotate(-89.85)"/><path class="cls-1" d="M78.65,75.64h-2.8v2.8h4.2a1.4,1.4,0,0,0,1.4-1.4v-4.2h-2.8Z"/></g></g></svg>