<?xml version="1.0" encoding="utf-8"?>
<!-- Generator: Adobe Illustrator 23.0.2, SVG Export Plug-In . SVG Version: 6.00 Build 0)  -->
<svg version="1.0" id="Layer_1" xmlns="http://www.w3.org/2000/svg" xmlns:xlink="http://www.w3.org/1999/xlink" x="0px" y="0px"
	 viewBox="0 0 374.6 61.2" style="enable-background:new 0 0 374.6 61.2;" xml:space="preserve">
<style type="text/css">
	.st0{fill:url(#SVGID_1_);}
	.st1{fill:#8DFFF4;}
</style>
<title>reduite-logotipo</title>
<g id="Layer_1-2">
	<linearGradient id="SVGID_1_" gradientUnits="userSpaceOnUse" x1="0" y1="30.61" x2="53.57" y2="30.61">
		<stop  offset="0" style="stop-color:#75FFF8"/>
		<stop  offset="0.5575" style="stop-color:#35D7CF"/>
		<stop  offset="1" style="stop-color:#00B5AC"/>
	</linearGradient>
	<path class="st0" d="M18.2,47.5h7.9v13.7L18.2,47.5z M41.3,22.8l12.2-7.1 M27,14V0l8.1,14H27z M12.5,22L0.6,15.1h15.8L12.5,22z
		 M11.9,38.7L0,45.6l7.9-13.8L11.9,38.7z M40.9,39.6l11.9,6.9H36.9L40.9,39.6z M41.3,22.8l12.2-7.1l-8.2,14.2L41.3,22.8z"/>
	<path class="st1" d="M104,45.4L93.4,33.5h-4.3v11.8h-4.7V15.7h14c6.1,0,10.2,3.6,10.2,9c0,5.1-3.7,8.6-9.4,8.9l10.7,11.8H104z
		 M98.3,29.2c3.3,0,5.4-1.9,5.4-4.6s-2.2-4.6-5.4-4.6h-9.2v9.3L98.3,29.2z"/>
	<path class="st1" d="M154,45.4h-22.1V15.7H154V20h-17.4v8.4h16v4.3h-16v8.5H154V45.4z"/>
	<path class="st1" d="M188.2,15.7c10.1,0,16.4,6.2,16.4,14.9s-6.3,14.9-16.4,14.9h-10.4V15.7H188.2z M188.2,41.1
		c7.2,0,11.6-4.4,11.6-10.6S195.5,20,188.2,20h-5.6v21.1H188.2z"/>
	<path class="st1" d="M253,32.2c0,8.2-5,13.8-12.5,13.8c-7.7,0-12.8-5.5-12.8-13.8V15.7h4.8v16.6c0,5.5,3.2,9.2,8.1,9.2
		c4.6,0,7.8-3.6,7.8-9.2V15.7h4.7V32.2z"/>
	<path class="st1" d="M277.5,45.4V15.7h4.8v29.7H277.5z"/>
	<path class="st1" d="M319.7,20v25.4h-4.8V20h-10.4v-4.3h25.7V20H319.7z"/>
	<path class="st1" d="M374.6,45.4h-22.1V15.7h22.1V20h-17.3v8.4h16v4.3h-16v8.5h17.4L374.6,45.4z"/>
</g>
</svg>
