<svg xmlns="http://www.w3.org/2000/svg" viewBox="0 0 374.58 61.22"><defs><style>.cls-1{fill:#1e1e1e;}</style></defs><title>reduite-logotipo</title><g id="Layer_2" data-name="Layer 2"><g id="Layer_1-2" data-name="Layer 1"><path class="cls-1" d="M18.17,47.54h7.9V61.22ZM41.3,22.78l12.24-7.1M27.05,14V0l8.07,14ZM12.47,22,.64,15.13H16.43ZM11.9,38.69,0,45.6,7.94,31.83Zm29,.94,11.89,6.91H36.88Zm.43-16.85,12.24-7.1L45.37,29.83Z"/><path class="cls-1" d="M104,45.38,93.4,33.54H89.1V45.38H84.36V15.67h14c6.12,0,10.2,3.59,10.2,9,0,5.1-3.73,8.56-9.36,8.87L109.9,45.38ZM98.33,29.24c3.28,0,5.45-1.87,5.45-4.62S101.61,20,98.33,20H89.1v9.27Z"/><path class="cls-1" d="M154,45.38H131.91V15.67H154V20H136.65v8.38h16v4.26h-16v8.47H154Z"/><path class="cls-1" d="M188.24,15.67c10.11,0,16.41,6.2,16.41,14.85s-6.3,14.86-16.41,14.86H177.86V15.67Zm0,25.41c7.23,0,11.62-4.39,11.62-10.56S195.47,20,188.24,20H182.6V41.08Z"/><path class="cls-1" d="M253,32.25C253,40.46,248,46,240.49,46c-7.72,0-12.82-5.54-12.82-13.75V15.67h4.75V32.25c0,5.55,3.19,9.18,8.07,9.18,4.65,0,7.8-3.63,7.8-9.18V15.67H253Z"/><path class="cls-1" d="M277.48,45.38V15.67h4.75V45.38Z"/><path class="cls-1" d="M319.71,20V45.38h-4.79V20H304.49v-4.3h25.69V20Z"/><path class="cls-1" d="M374.58,45.38H352.44V15.67h22.09V20H357.19v8.38h16v4.26h-16v8.47h17.39Z"/></g></g></svg>