<svg xmlns="http://www.w3.org/2000/svg" viewBox="0 0 41 80.95"><defs><style>.cls-1{fill:#242d63;}</style></defs><title>scroll</title><g id="Layer_2" data-name="Layer 2"><g id="Layer_1-2" data-name="Layer 1"><path class="cls-1" d="M14.5,57V52A9.56,9.56,0,0,1,5,42.5v-28A9.56,9.56,0,0,1,14.5,5h12A9.56,9.56,0,0,1,36,14.5v28A9.56,9.56,0,0,1,26.5,52v5A14.51,14.51,0,0,0,41,42.5v-28A14.51,14.51,0,0,0,26.5,0h-12A14.51,14.51,0,0,0,0,14.5v28A14.51,14.51,0,0,0,14.5,57Z"/><path class="cls-1" d="M21,19c.2,0,.3-.1.5-.1s.3-.1.4-.2.3-.2.4-.3a2.41,2.41,0,0,0,.7-1.8,2.87,2.87,0,0,0-.7-1.8,2.41,2.41,0,0,0-1.8-.7,2.87,2.87,0,0,0-1.8.7,2.41,2.41,0,0,0-.7,1.8,2.87,2.87,0,0,0,.7,1.8A3.1,3.1,0,0,0,21,19Z"/><circle class="cls-1" cx="20.5" cy="40" r="2.5"/><path class="cls-1" d="M18,52a2.42,2.42,0,0,0,2.5,2.2A2.58,2.58,0,0,0,23,52v-.2a2.5,2.5,0,0,0-5,0Z"/><circle class="cls-1" cx="20.5" cy="28.3" r="2.5"/><path class="cls-1" d="M18.7,65.3a1.38,1.38,0,0,0,.4.3.76.76,0,0,0,.4.2.75.75,0,0,0,.5.1,2.49,2.49,0,0,0,2.3-.7,2.41,2.41,0,0,0,.7-1.8v-.5c0-.2-.1-.3-.1-.5s-.1-.3-.2-.4-.2-.3-.3-.4a1.38,1.38,0,0,0-.4-.3.76.76,0,0,0-.4-.2.75.75,0,0,0-.5-.1h-1c-.2,0-.3.1-.5.1s-.3.1-.4.2-.3.2-.4.3a1.38,1.38,0,0,0-.3.4.76.76,0,0,0-.2.4.9.9,0,0,0-.1.5c0,.2-.1.3-.1.5A2.43,2.43,0,0,0,18.7,65.3Z"/><path class="cls-1" d="M27.5,69a2.57,2.57,0,0,0-1.8.7l-5.2,5.2-5.2-5.2a2.41,2.41,0,0,0-1.8-.7,2.45,2.45,0,0,0-1.8,4.2l7,7a2.42,2.42,0,0,0,3.5,0l7-7a2.42,2.42,0,0,0,0-3.5A2.19,2.19,0,0,0,27.5,69Z"/></g></g></svg>