<svg xmlns="http://www.w3.org/2000/svg" viewBox="0 0 107.85 127.47"><defs><style>.cls-1{fill:#242d63;}</style></defs><title>seguimiento-de-objetivos</title><g id="Layer_2" data-name="Layer 2"><g id="Layer_1-2" data-name="Layer 1"><path class="cls-1" d="M2.22,101.61A6.4,6.4,0,0,1,0,100.52l.9-2A7,7,0,0,0,5,99.8a3.71,3.71,0,0,0,1.88-.39,1.21,1.21,0,0,0,.66-1.09,1.07,1.07,0,0,0-.61-1,7.76,7.76,0,0,0-2.11-.67,11.14,11.14,0,0,1-2.69-.84A3.52,3.52,0,0,1,.71,94.64a3.15,3.15,0,0,1-.46-1.77A3.5,3.5,0,0,1,.89,90.8a4.21,4.21,0,0,1,1.79-1.43,6.56,6.56,0,0,1,2.67-.51A8.79,8.79,0,0,1,8,89.25a5.52,5.52,0,0,1,2,1.08l-.9,2a6,6,0,0,0-3.73-1.3,3.1,3.1,0,0,0-1.72.43A1.33,1.33,0,0,0,3,92.65a1.08,1.08,0,0,0,.24.72,2,2,0,0,0,.82.52,11,11,0,0,0,1.64.44,9,9,0,0,1,3.55,1.4,2.84,2.84,0,0,1,1.09,2.36,3.38,3.38,0,0,1-1.4,2.85A6.42,6.42,0,0,1,5,102,10,10,0,0,1,2.22,101.61Z"/><path class="cls-1" d="M20.38,97.5h-6A2.74,2.74,0,0,0,15,99.36a2.41,2.41,0,0,0,1.76.58,4.34,4.34,0,0,0,1.41-.23A4.43,4.43,0,0,0,19.49,99l.72,1.83a4.78,4.78,0,0,1-1.61.82,6.42,6.42,0,0,1-1.93.3,5,5,0,0,1-3.62-1.27,4.58,4.58,0,0,1-1.31-3.47,5.23,5.23,0,0,1,.56-2.47,4.08,4.08,0,0,1,1.6-1.69,4.39,4.39,0,0,1,2.32-.61,3.88,3.88,0,0,1,3,1.25,4.92,4.92,0,0,1,1.12,3.38ZM15,94.83a2.21,2.21,0,0,0-.62,1.32H18c-.15-1.18-.73-1.77-1.75-1.77A1.74,1.74,0,0,0,15,94.83Z"/><path class="cls-1" d="M31.32,92.71v8.71a4.22,4.22,0,0,1-1.26,3.31,5.29,5.29,0,0,1-3.67,1.14,8,8,0,0,1-3.78-.85l.41-2a7.35,7.35,0,0,0,3.28.83,2.41,2.41,0,0,0,1.74-.55,2.16,2.16,0,0,0,.58-1.66V100a3.34,3.34,0,0,1-1.21,1.11,3.4,3.4,0,0,1-1.71.44,3.83,3.83,0,0,1-3.54-2.17,5.73,5.73,0,0,1,0-4.77A3.93,3.93,0,0,1,23.6,93a3.89,3.89,0,0,1,2.1-.57,3.54,3.54,0,0,1,1.73.42A3,3,0,0,1,28.62,94V92.71Zm-3.27,6.14A2.66,2.66,0,0,0,28.62,97a2.72,2.72,0,0,0-.56-1.81,1.93,1.93,0,0,0-1.56-.66,2,2,0,0,0-1.59.66A2.67,2.67,0,0,0,24.34,97a2.72,2.72,0,0,0,.57,1.82,2,2,0,0,0,1.59.66A1.93,1.93,0,0,0,28.05,98.85Z"/><path class="cls-1" d="M42.21,92.71v9.12H39.56V100.5a2.84,2.84,0,0,1-1.13,1.1,3.32,3.32,0,0,1-1.58.38,3.23,3.23,0,0,1-2.56-1,4.23,4.23,0,0,1-.85-2.88V92.71h2.72V98.2c0,1.1.48,1.65,1.42,1.65A1.77,1.77,0,0,0,39,99.28a2.17,2.17,0,0,0,.52-1.51V92.71Z"/><path class="cls-1" d="M44.32,88.42h2.89V91H44.32Zm.09,13.41V92.71h2.71v9.12Z"/><path class="cls-1" d="M62.83,93.42a4.54,4.54,0,0,1,.76,2.89v5.52H60.88V96.4A2.42,2.42,0,0,0,60.57,95a1.17,1.17,0,0,0-1-.42,1.54,1.54,0,0,0-1.28.57,2.6,2.6,0,0,0-.45,1.62v5H55.11V96.4A2.35,2.35,0,0,0,54.8,95a1.14,1.14,0,0,0-1-.43,1.57,1.57,0,0,0-1.29.57,2.6,2.6,0,0,0-.46,1.62v5H49.34V95.32a20.42,20.42,0,0,0-.15-2.61h2.56l.16,1.37a2.83,2.83,0,0,1,1.16-1.19,3.45,3.45,0,0,1,1.72-.42,2.61,2.61,0,0,1,2.7,1.7,3.38,3.38,0,0,1,1.25-1.24,3.55,3.55,0,0,1,1.76-.46A2.83,2.83,0,0,1,62.83,93.42Z"/><path class="cls-1" d="M65.65,88.42h2.89V91H65.65Zm.08,13.41V92.71h2.72v9.12Z"/><path class="cls-1" d="M78.86,97.5h-6a2.74,2.74,0,0,0,.67,1.86,2.41,2.41,0,0,0,1.76.58,4.34,4.34,0,0,0,1.41-.23A4.43,4.43,0,0,0,78,99l.72,1.83a4.69,4.69,0,0,1-1.61.82,6.42,6.42,0,0,1-1.93.3,5,5,0,0,1-3.62-1.27,4.58,4.58,0,0,1-1.31-3.47,5.35,5.35,0,0,1,.56-2.47,4.08,4.08,0,0,1,1.6-1.69,4.39,4.39,0,0,1,2.32-.61,3.88,3.88,0,0,1,3,1.25,4.92,4.92,0,0,1,1.12,3.38Zm-5.34-2.67a2.21,2.21,0,0,0-.62,1.32h3.62c-.15-1.18-.73-1.77-1.75-1.77A1.74,1.74,0,0,0,73.52,94.83Z"/><path class="cls-1" d="M89.44,96.31v5.52H86.72v-5.4A2.19,2.19,0,0,0,86.37,95a1.31,1.31,0,0,0-1.11-.44,1.89,1.89,0,0,0-1.44.57,2.18,2.18,0,0,0-.54,1.55v5.11H80.57V95.32a20.42,20.42,0,0,0-.15-2.61H83l.18,1.44a3.28,3.28,0,0,1,1.27-1.24,3.57,3.57,0,0,1,1.77-.44Q89.44,92.47,89.44,96.31Z"/><path class="cls-1" d="M95,94.74v3.55a1.37,1.37,0,0,0,.4,1.1,1.44,1.44,0,0,0,1,.36,3.9,3.9,0,0,0,.9-.13v2.11a4.47,4.47,0,0,1-1.56.25,3.37,3.37,0,0,1-2.59-1,3.79,3.79,0,0,1-.89-2.68v-3.6H90.57v-2H92.3V90.57L95,89.68v3h2.32v2Z"/><path class="cls-1" d="M100.54,101.4a3.93,3.93,0,0,1-1.68-1.65,5.76,5.76,0,0,1,0-5,4,4,0,0,1,1.68-1.66,5.38,5.38,0,0,1,2.54-.58,5.33,5.33,0,0,1,2.52.58,4,4,0,0,1,1.67,1.66,5.76,5.76,0,0,1,0,5,4,4,0,0,1-1.67,1.65,5.21,5.21,0,0,1-2.52.58A5.26,5.26,0,0,1,100.54,101.4Zm4.08-2.16a3.13,3.13,0,0,0,.53-2,3.17,3.17,0,0,0-.53-2,1.83,1.83,0,0,0-1.54-.68,1.88,1.88,0,0,0-1.56.68,3.17,3.17,0,0,0-.54,2c0,1.78.7,2.68,2.1,2.68A1.82,1.82,0,0,0,104.62,99.24Z"/><path class="cls-1" d="M11.68,110.19v13.24H9v-1.35a2.89,2.89,0,0,1-1.17,1.1,3.54,3.54,0,0,1-1.71.4A3.66,3.66,0,0,1,4,123a4,4,0,0,1-1.43-1.69,6.31,6.31,0,0,1,0-5A4,4,0,0,1,4,114.66a3.82,3.82,0,0,1,2.1-.59,3.57,3.57,0,0,1,1.67.39A2.83,2.83,0,0,1,9,115.53v-5.34ZM8.46,120.81a3.15,3.15,0,0,0,.54-2,3.11,3.11,0,0,0-.55-2,1.86,1.86,0,0,0-1.54-.69,1.89,1.89,0,0,0-1.56.69,2.93,2.93,0,0,0-.56,1.94,3.16,3.16,0,0,0,.56,2,1.88,1.88,0,0,0,1.56.71A1.84,1.84,0,0,0,8.46,120.81Z"/><path class="cls-1" d="M22.07,119.1h-6a2.74,2.74,0,0,0,.66,1.86,2.44,2.44,0,0,0,1.77.58,4.32,4.32,0,0,0,1.4-.23,4.61,4.61,0,0,0,1.3-.68l.72,1.83a4.84,4.84,0,0,1-1.62.82,6.42,6.42,0,0,1-1.93.3,5,5,0,0,1-3.62-1.27,4.62,4.62,0,0,1-1.31-3.47,5.35,5.35,0,0,1,.56-2.47,4.08,4.08,0,0,1,1.6-1.69,4.42,4.42,0,0,1,2.32-.61,3.88,3.88,0,0,1,3,1.25,4.87,4.87,0,0,1,1.12,3.38Zm-5.34-2.67a2.27,2.27,0,0,0-.62,1.32h3.62C19.58,116.57,19,116,18,116A1.76,1.76,0,0,0,16.73,116.43Z"/><path class="cls-1" d="M30.64,123A4,4,0,0,1,29,121.35a5.76,5.76,0,0,1,0-5,4,4,0,0,1,1.67-1.66,5.45,5.45,0,0,1,2.55-.58,5.33,5.33,0,0,1,2.52.58,4,4,0,0,1,1.67,1.66,5.76,5.76,0,0,1,0,5A4,4,0,0,1,35.71,123a5.21,5.21,0,0,1-2.52.58A5.33,5.33,0,0,1,30.64,123Zm4.09-2.16a3.2,3.2,0,0,0,.53-2,3.24,3.24,0,0,0-.53-2,1.84,1.84,0,0,0-1.54-.68,1.88,1.88,0,0,0-1.56.68,3.17,3.17,0,0,0-.54,2c0,1.78.7,2.68,2.1,2.68A1.84,1.84,0,0,0,34.73,120.84Z"/><path class="cls-1" d="M47.39,114.66a3.83,3.83,0,0,1,1.42,1.65,6.31,6.31,0,0,1,0,5A4,4,0,0,1,47.38,123a3.69,3.69,0,0,1-2.09.61,3.61,3.61,0,0,1-1.72-.41,2.81,2.81,0,0,1-1.16-1.1v1.36h-2.7V110.19h2.72v5.4a2.77,2.77,0,0,1,1.16-1.11,3.56,3.56,0,0,1,1.7-.41A3.82,3.82,0,0,1,47.39,114.66Zm-1.33,6.15a3.26,3.26,0,0,0,.54-2,3,3,0,0,0-.54-1.94,2.09,2.09,0,0,0-3.1,0,3.84,3.84,0,0,0,0,4,2.07,2.07,0,0,0,3.1,0Z"/><path class="cls-1" d="M49.68,125.23a1.41,1.41,0,0,0,1-.36,1.44,1.44,0,0,0,.38-1.11v-9.45h2.72v9.52a3.78,3.78,0,0,1-.88,2.68,3.3,3.3,0,0,1-2.55,1,4.28,4.28,0,0,1-1.55-.24v-2.12A4.05,4.05,0,0,0,49.68,125.23ZM51,110h2.89v2.56H51Z"/><path class="cls-1" d="M64.19,119.1h-6a2.74,2.74,0,0,0,.67,1.86,2.41,2.41,0,0,0,1.76.58,4.34,4.34,0,0,0,1.41-.23,4.43,4.43,0,0,0,1.29-.68l.72,1.83a4.69,4.69,0,0,1-1.61.82,6.42,6.42,0,0,1-1.93.3,5,5,0,0,1-3.62-1.27,4.58,4.58,0,0,1-1.31-3.47,5.35,5.35,0,0,1,.56-2.47,4.08,4.08,0,0,1,1.6-1.69,4.39,4.39,0,0,1,2.32-.61,3.88,3.88,0,0,1,3,1.25,4.92,4.92,0,0,1,1.12,3.38Zm-5.34-2.67a2.21,2.21,0,0,0-.62,1.32h3.62c-.15-1.18-.73-1.77-1.75-1.77A1.74,1.74,0,0,0,58.85,116.43Z"/><path class="cls-1" d="M69.14,116.34v3.55a1.4,1.4,0,0,0,.39,1.1,1.49,1.49,0,0,0,1,.36,4.06,4.06,0,0,0,.9-.13v2.11a4.53,4.53,0,0,1-1.57.25,3.34,3.34,0,0,1-2.58-1,3.79,3.79,0,0,1-.89-2.68v-3.6H64.69v-2h1.73v-2.14l2.72-.89v3h2.32v2Z"/><path class="cls-1" d="M72.75,110h2.9v2.56h-2.9Zm.09,13.41v-9.12h2.72v9.12Z"/><path class="cls-1" d="M84.09,114.33h2.69l-4,9.1h-2.3l-4-9.1h2.84l2.34,5.9Z"/><path class="cls-1" d="M89.31,123a3.93,3.93,0,0,1-1.68-1.65,5.76,5.76,0,0,1,0-5,4,4,0,0,1,1.68-1.66,5.38,5.38,0,0,1,2.54-.58,5.33,5.33,0,0,1,2.52.58A4,4,0,0,1,96,116.31a5.76,5.76,0,0,1,0,5A4,4,0,0,1,94.37,123a5.21,5.21,0,0,1-2.52.58A5.26,5.26,0,0,1,89.31,123Zm4.08-2.16a3.13,3.13,0,0,0,.53-2,3.17,3.17,0,0,0-.53-2,1.84,1.84,0,0,0-1.54-.68,1.88,1.88,0,0,0-1.56.68,3.17,3.17,0,0,0-.54,2c0,1.78.7,2.68,2.1,2.68A1.84,1.84,0,0,0,93.39,120.84Z"/><path class="cls-1" d="M97.77,122.46l.72-1.89a5.39,5.39,0,0,0,1.61.8,5.74,5.74,0,0,0,1.8.28,2.3,2.3,0,0,0,1.08-.21.7.7,0,0,0,.37-.63.63.63,0,0,0-.27-.54,2.48,2.48,0,0,0-1-.35l-1.49-.34a3.79,3.79,0,0,1-1.94-.92,2.28,2.28,0,0,1-.62-1.67,2.41,2.41,0,0,1,.5-1.51,3.11,3.11,0,0,1,1.37-1,5.38,5.38,0,0,1,2-.37,6.18,6.18,0,0,1,1.9.3,5.75,5.75,0,0,1,1.68.84l-.76,1.82a5.74,5.74,0,0,0-1.43-.74A4.24,4.24,0,0,0,102,116a2,2,0,0,0-1,.23.73.73,0,0,0-.37.65.6.6,0,0,0,.22.49,2,2,0,0,0,.8.32l1.53.34a4.13,4.13,0,0,1,2,1,2.59,2.59,0,0,1-.42,3.78,4.74,4.74,0,0,1-2.86.76A6.66,6.66,0,0,1,97.77,122.46Z"/><path class="cls-1" d="M87.73,30.87a1.61,1.61,0,0,0-2.13-.23c-8.27,6.61-17.24,4.6-27.76,2.36-11.57-2.48-26-5.67-37.68,7.68a1.49,1.49,0,0,0,.24,2.12,1.34,1.34,0,0,0,1,.36,1.28,1.28,0,0,0,1.06-.48c10.51-12,22.91-9.33,34.84-6.73C68,38.31,78,40.44,87.49,33A1.62,1.62,0,0,0,87.73,30.87Z"/><path class="cls-1" d="M32.69,21a11.21,11.21,0,0,1,.47,2.25c.12.59.12,1.06.23,1.65.36,1.3.71,2.72,1.07,3.78a1.64,1.64,0,0,0,1.41,1.06.91.91,0,0,0,.48-.12,1.45,1.45,0,0,0,.94-1.89A27,27,0,0,1,36.35,24c-.12-.47-.12-.94-.24-1.41a9,9,0,0,0-.83-3.08c-1.3-2.83-1.65-7.2.71-10L36.35,9V8a17.45,17.45,0,0,0-2-7.21,1.52,1.52,0,0,0-2-.59,1.52,1.52,0,0,0-.59,2,14.53,14.53,0,0,1,1.65,5.91C30.56,12,30.91,17.29,32.69,21Z"/><path class="cls-1" d="M78.28,73.4h0A1.54,1.54,0,0,0,79.81,72c0-6,.12-12.76-2.36-18.9a.9.9,0,0,0-.23-.47C76.51,51,75.68,49.42,75,48l-.35-.59a33.77,33.77,0,0,1-3-6.38,1.46,1.46,0,1,0-2.83.71,21.62,21.62,0,0,0,2.48,5.91c-2.84.47-5.79.94-8.62,1.18a78.21,78.21,0,0,1-11.58-.12c-3.54-.36-7.2-.83-10.75-1.42-1.06-.12-2.24-.35-3.3-.47a22.21,22.21,0,0,0,2.36-6.26,15.65,15.65,0,0,0,.12-3.31,1.48,1.48,0,1,0-3,.12,9.26,9.26,0,0,1-.12,2.6,20.54,20.54,0,0,1-3,7.09h0c-.12.11-.12.23-.23.35-.83,1.54-1.66,3.07-2.37,4.72,0,.12-.11.24-.11.36-2.6,6.26-2.6,13.23-2.49,19.37V72a1.47,1.47,0,0,0,1.54,1.42h0a1.47,1.47,0,0,0,1.42-1.54v-.12c0-5.55,0-11.81,2-17.36a23.32,23.32,0,0,1,10.86,5.55c2.13,2,4.14,4.25,6.14,6.5l1.78,1.89a3.21,3.21,0,0,0,2.36,1.41,3.53,3.53,0,0,0,2.12-1.06A1.79,1.79,0,0,0,57,68.2c1.3-1.3,2.48-2.6,3.78-4l1.89-2c3.78-4,7.79-6.37,12.28-7.08h.24C77,60.52,77,66.54,77,71.86A1.25,1.25,0,0,0,78.28,73.4Zm-18-13.12-1.89,2c-1.29,1.3-2.48,2.6-3.78,4l-.23.23a.42.42,0,0,1-.24.12L54,66.43l-1.78-1.89c-2-2.25-4.13-4.49-6.26-6.62A26.83,26.83,0,0,0,34.1,51.66a25.13,25.13,0,0,1,1.3-2.36c.36,0,.71.12,1,.12,1.18.12,2.24.35,3.42.47,3.55.59,7.33,1.06,11,1.42,2.6.23,5.08.35,7.32.35,1.65,0,3.19-.12,4.72-.23A96.87,96.87,0,0,0,72.73,50l1.06,2.12A26.53,26.53,0,0,0,60.32,60.28Z"/><path class="cls-1" d="M72.25,20.12l-.11.24v.36a41,41,0,0,1-1.89,7.91l-.12.35c-.24.95-.47,1.78-.71,2.72a1.35,1.35,0,0,0,1.06,1.77h.36a1.51,1.51,0,0,0,1.41-1.06c.24-.83.48-1.77.71-2.6l.12-.35A54.34,54.34,0,0,0,75,21.31c.12-.12.12-.24.24-.36,1.77-3.66,2.12-9-.83-12.76A14.32,14.32,0,0,1,76,2.29a1.51,1.51,0,0,0-.59-2,1.51,1.51,0,0,0-2,.59,17.33,17.33,0,0,0-2,7.32V9.26l.35.47c2.48,2.84,2.13,7.21.71,10C72.49,19.89,72.37,20,72.25,20.12Z"/></g></g></svg>