<svg xmlns="http://www.w3.org/2000/svg" viewBox="0 0 199.64 45"><defs><style>.cls-1{fill:#242d63;}.cls-2,.cls-3{fill:#8dfff4;}.cls-3{fill-rule:evenodd;}</style></defs><title>telefono-menu</title><g id="Layer_2" data-name="Layer 2"><g id="Layer_1-2" data-name="Layer 1"><rect class="cls-1" width="199.64" height="45"/><path class="cls-2" d="M63.78,27.32h3.3v2.24H57.73V27.32h3.32V17.55L58,19.4V17l4.22-2.55h1.6Z"/><path class="cls-2" d="M69.23,14.4H79.79v2L72.91,29.56H70l6.86-12.93h-7.6Z"/><path class="cls-2" d="M83.17,27.76A10,10,0,0,1,81.75,22a9.81,9.81,0,0,1,1.42-5.73,5.28,5.28,0,0,1,8.24,0A9.71,9.71,0,0,1,92.83,22a9.92,9.92,0,0,1-1.42,5.79,5.25,5.25,0,0,1-8.24,0Zm6.26-1.51A10.16,10.16,0,0,0,90.1,22a9.91,9.91,0,0,0-.67-4.23,2.39,2.39,0,0,0-4.28,0A9.91,9.91,0,0,0,84.48,22a10.16,10.16,0,0,0,.67,4.29,2.37,2.37,0,0,0,4.28,0Z"/><path class="cls-2" d="M104,16.15a8.63,8.63,0,0,1,1.57,5.55,11.3,11.3,0,0,1-.75,4.33,6,6,0,0,1-2.14,2.76,5.69,5.69,0,0,1-3.31,1,8,8,0,0,1-2.65-.45A6.77,6.77,0,0,1,94.51,28l.92-2a6.38,6.38,0,0,0,3.85,1.58,2.94,2.94,0,0,0,2.61-1.44,7.85,7.85,0,0,0,1-4.12,3.68,3.68,0,0,1-1.48,1.55,4.34,4.34,0,0,1-2.25.58,4.65,4.65,0,0,1-2.39-.62,4.27,4.27,0,0,1-1.65-1.72,5.6,5.6,0,0,1,0-5.14A4.74,4.74,0,0,1,97,14.85a5.89,5.89,0,0,1,7.07,1.3Zm-2.35,5a2.73,2.73,0,0,0,.74-2,2.78,2.78,0,0,0-.74-2,2.59,2.59,0,0,0-1.94-.77,2.5,2.5,0,0,0-1.91.76,2.89,2.89,0,0,0-.71,2,2.83,2.83,0,0,0,.71,2,2.54,2.54,0,0,0,1.91.76A2.59,2.59,0,0,0,101.67,21.17Z"/><path class="cls-2" d="M116.17,20.48a4.19,4.19,0,0,1,1.69,1.7,5.27,5.27,0,0,1,.59,2.52,5,5,0,0,1-.68,2.64,4.54,4.54,0,0,1-2,1.76,6.61,6.61,0,0,1-3,.63,8.51,8.51,0,0,1-2.81-.48A6.6,6.6,0,0,1,107.76,28l.92-2a6.88,6.88,0,0,0,4.21,1.58,3.06,3.06,0,0,0,2.19-.72,2.66,2.66,0,0,0,.75-2,2.69,2.69,0,0,0-.77-2A2.83,2.83,0,0,0,113,22a4.27,4.27,0,0,0-1.68.33,3.93,3.93,0,0,0-1.39,1h-1.66V14.4h9.5v2.13h-6.82v4.13a4.69,4.69,0,0,1,2.73-.79A5,5,0,0,1,116.17,20.48Z"/><path class="cls-2" d="M130,23.09a3.8,3.8,0,0,1,.71,2.36,3.76,3.76,0,0,1-1.46,3.13,6.15,6.15,0,0,1-3.93,1.15,9.16,9.16,0,0,1-2.95-.47,6.32,6.32,0,0,1-2.33-1.3l.94-2a6.81,6.81,0,0,0,4.24,1.58,3.37,3.37,0,0,0,2.16-.58,2.08,2.08,0,0,0,.71-1.74,2,2,0,0,0-.72-1.7,3.75,3.75,0,0,0-2.24-.54h-2V20.79h1.64c2,0,2.94-.75,2.94-2.24a2,2,0,0,0-.64-1.6,2.64,2.64,0,0,0-1.79-.55A6.71,6.71,0,0,0,121.22,18l-.91-2a6.75,6.75,0,0,1,2.31-1.29,8.72,8.72,0,0,1,2.86-.48,5.46,5.46,0,0,1,3.57,1.1,3.6,3.6,0,0,1,1.33,2.93,3.84,3.84,0,0,1-.65,2.18A3.6,3.6,0,0,1,128,21.77,3.64,3.64,0,0,1,130,23.09Z"/><path class="cls-2" d="M140.46,27.32h3.3v2.24h-9.35V27.32h3.32V17.55l-3.09,1.85V17l4.22-2.55h1.6Z"/><path class="cls-2" d="M156.05,23.11a3.54,3.54,0,0,1,.83,2.36,3.7,3.7,0,0,1-.72,2.27,4.37,4.37,0,0,1-2,1.48,8.9,8.9,0,0,1-5.94,0,4.37,4.37,0,0,1-2-1.48,3.7,3.7,0,0,1-.72-2.27,3.54,3.54,0,0,1,.83-2.36,4.21,4.21,0,0,1,2.3-1.34,4.27,4.27,0,0,1-2-1.35,3.3,3.3,0,0,1-.73-2.13,3.52,3.52,0,0,1,.68-2.16,4.35,4.35,0,0,1,1.88-1.43,7.76,7.76,0,0,1,5.48,0,4.35,4.35,0,0,1,1.88,1.43,3.52,3.52,0,0,1,.68,2.16,3.39,3.39,0,0,1-.73,2.17,4,4,0,0,1-2,1.31A4.21,4.21,0,0,1,156.05,23.11ZM153.46,27a2,2,0,0,0,.82-1.7,2,2,0,0,0-.84-1.68,3.46,3.46,0,0,0-4.5,0,2.14,2.14,0,0,0,0,3.38,4.59,4.59,0,0,0,4.54,0Zm-4.25-10a2,2,0,0,0-.72,1.64,2,2,0,0,0,.73,1.63,2.78,2.78,0,0,0,3.94,0,2,2,0,0,0,.74-1.63,2,2,0,0,0-.73-1.64,3.72,3.72,0,0,0-4,0Z"/><path class="cls-2" d="M167.3,20.44A4.3,4.3,0,0,1,169,22.17a5.58,5.58,0,0,1,0,5.13,4.61,4.61,0,0,1-1.81,1.8,5.21,5.21,0,0,1-2.63.65A5.34,5.34,0,0,1,160,27.8a8.66,8.66,0,0,1-1.56-5.54,11.5,11.5,0,0,1,.74-4.33,6,6,0,0,1,2.13-2.77,5.69,5.69,0,0,1,3.31-1,8,8,0,0,1,2.65.46A6.8,6.8,0,0,1,169.55,16l-.94,2a6.3,6.3,0,0,0-3.85-1.57,2.92,2.92,0,0,0-2.6,1.42,7.88,7.88,0,0,0-1,4.09,3.69,3.69,0,0,1,1.49-1.52,4.52,4.52,0,0,1,2.22-.56A4.65,4.65,0,0,1,167.3,20.44Zm-1.08,6.37a2.86,2.86,0,0,0,.71-2,2.82,2.82,0,0,0-.71-2,2.49,2.49,0,0,0-1.91-.76,2.61,2.61,0,0,0-1.94.77,3.07,3.07,0,0,0,0,4,2.61,2.61,0,0,0,2,.78A2.48,2.48,0,0,0,166.22,26.81Z"/><path class="cls-3" d="M26.46,11.8l-3.86-.22a.79.79,0,0,0-.74.52c-3.19,11.5,9.13,25,20.85,22.78a.79.79,0,0,0,.59-.74l.08-3.86c0-.52-.15-.59-.52-.74l-5.57-1.93a.94.94,0,0,0-.81.22l-1.93,1.41c-3.42-.44-7.65-5-7.79-8.53l1.55-1.78a1,1,0,0,0,.3-.82L27.2,12.4C27.13,12.1,27,11.88,26.46,11.8Z"/></g></g></svg>